<svg id="Group_44" data-name="Group 44" xmlns="http://www.w3.org/2000/svg" xmlns:xlink="http://www.w3.org/1999/xlink" width="16" height="12" viewBox="0 0 16 12">
  <defs>
    <clipPath id="clip-path">
      <path id="_Icon_Color" data-name="🎨 Icon Color" d="M6.049.293l-5.7,4.99a1.061,1.061,0,0,0-.125.126h0l-.015.018,0,0L.19,5.448l0,.005-.011.016,0,.005L.16,5.489l0,.006-.01.016,0,.005-.01.017,0,0-.011.018,0,0-.011.02h0a.894.894,0,0,0-.1.372v0c0,.007,0,.014,0,.02s0,.01,0,.015S0,6,0,6H0c0,.008,0,.017,0,.025v.006c0,.006,0,.013,0,.019V6.1l0,.013v.011l0,.015,0,.009,0,.015,0,.009,0,.015,0,.009,0,.015,0,.01,0,.014,0,.011,0,.012,0,.012,0,.01.005.015,0,.007.007.018,0,0,.008.021h0a.991.991,0,0,0,.265.363l5.714,5a1.264,1.264,0,0,0,1.616,0,.915.915,0,0,0,0-1.415L3.9,7H14.857A1.079,1.079,0,0,0,16,6a1.079,1.079,0,0,0-1.143-1H3.9L7.665,1.707a.914.914,0,0,0,0-1.414,1.261,1.261,0,0,0-1.616,0Z" transform="translate(16 12) rotate(180)" fill="#222b45"/>
    </clipPath>
  </defs>
  <path id="_Icon_Color-2" data-name="🎨 Icon Color" d="M6.049.293l-5.7,4.99a1.061,1.061,0,0,0-.125.126h0l-.015.018,0,0L.19,5.448l0,.005-.011.016,0,.005L.16,5.489l0,.006-.01.016,0,.005-.01.017,0,0-.011.018,0,0-.011.02h0a.894.894,0,0,0-.1.372v0c0,.007,0,.014,0,.02s0,.01,0,.015S0,6,0,6H0c0,.008,0,.017,0,.025v.006c0,.006,0,.013,0,.019V6.1l0,.013v.011l0,.015,0,.009,0,.015,0,.009,0,.015,0,.009,0,.015,0,.01,0,.014,0,.011,0,.012,0,.012,0,.01.005.015,0,.007.007.018,0,0,.008.021h0a.991.991,0,0,0,.265.363l5.714,5a1.264,1.264,0,0,0,1.616,0,.915.915,0,0,0,0-1.415L3.9,7H14.857A1.079,1.079,0,0,0,16,6a1.079,1.079,0,0,0-1.143-1H3.9L7.665,1.707a.914.914,0,0,0,0-1.414,1.261,1.261,0,0,0-1.616,0Z" transform="translate(16 12) rotate(180)" fill="#222b45"/>
</svg>
