<svg xmlns="http://www.w3.org/2000/svg" xmlns:xlink="http://www.w3.org/1999/xlink" width="545.532" height="208.233" viewBox="0 0 545.532 208.233">
  <defs>
    <linearGradient id="linear-gradient" x1="0.5" y1="0.922" x2="0.5" y2="-0.606" gradientUnits="objectBoundingBox">
      <stop offset="0" stop-color="#fff" stop-opacity="0"/>
      <stop offset="1" stop-color="#17191d" stop-opacity="0.259"/>
    </linearGradient>
    <linearGradient id="linear-gradient-2" y1="0.5" x2="1" y2="0.5" gradientUnits="objectBoundingBox">
      <stop offset="0" stop-color="#fff" stop-opacity="0"/>
      <stop offset="1" stop-color="#fff"/>
    </linearGradient>
    <linearGradient id="linear-gradient-4" x1="-0.291" y1="1.218" x2="1.74" y2="-0.596" xlink:href="#linear-gradient-2"/>
    <linearGradient id="linear-gradient-5" x1="-0.693" y1="1.361" x2="2.11" y2="-0.652" xlink:href="#linear-gradient-2"/>
    <linearGradient id="linear-gradient-6" x1="-0.278" y1="1.232" x2="1.698" y2="-0.689" xlink:href="#linear-gradient-2"/>
    <linearGradient id="linear-gradient-7" x1="-0.698" y1="1.372" x2="2.102" y2="-0.719" xlink:href="#linear-gradient-2"/>
  </defs>
  <g id="Group_436" data-name="Group 436" transform="translate(4997 -926.089)">
    <rect id="Rectangle_64" data-name="Rectangle 64" width="545.532" height="88.726" transform="translate(-4997 1045.596)" fill="url(#linear-gradient)"/>
    <path id="Path_462" data-name="Path 462" d="M1492.865,4496.352a33.1,33.1,0,0,0-32.97,32.358c-.011.5-.011,1,0,1.486l-57.2,1.393-.323.007-7.146.173-8.287.2-15.868.387-6.451.157-5.712.139a33.122,33.122,0,0,0-30.279-33.443c-.683-.064-1.377-.1-2.075-.117-.221-.007-.439-.007-.661-.007a32.91,32.91,0,0,0-5.374.417,32.41,32.41,0,0,0-5.5,1.374q-1.5.513-2.927,1.163a33.139,33.139,0,0,0-19.426,29.405q-.034,1.425.053,2.818l-14.3.346s-6.53-4.2-11.165-42.233a56.7,56.7,0,0,1-.42-6.894c0-.353,0-.7.011-1.054.011-.732.041-1.464.083-2.188.011-.221.023-.442.041-.664.015-.263.037-.525.056-.784.03-.356.06-.71.1-1.062,0-.038.007-.075.011-.108.03-.3.064-.608.1-.908.056-.488.12-.973.188-1.453.049-.323.094-.642.146-.964a66.542,66.542,0,0,1,4.042-14.412c9.033-22.488,28.147-38.254,32.67-41.55,6.365-4.638,34.667-2.507,34.667-2.507,30.193.484,52.088-.135,71.559,4.616a93.358,93.358,0,0,1,15.605,5.266l.326.146q2.331,1.036,4.65,2.229,3.6,1.852,7.2,4.117a114.4,114.4,0,0,1,10.565,7.54c5.611,4.481,10.122,8.046,13.995,10.94.252,3.085.379,6.2.582,9.289a56.335,56.335,0,0,0,2.529,14.933,28.208,28.208,0,0,0,3.738,7.262c2.923,4.057,7.108,6.939,11.33,9.772,5.9.473,9.979,1.193,11.74,2.346Z" transform="translate(-6116.369 -3478.704)" fill="#ff4874"/>
    <path id="Path_463" data-name="Path 463" d="M3005.946,4742.494c-37.977-9.979-42.248-8.939-60.341-22.454.893,10.963.233,22.3,6.849,31.484,2.924,4.057,7.108,6.939,11.331,9.772,5.9.473,9.979,1.193,11.74,2.346l.1.067c.308,0,.612,0,.919.008a33.29,33.29,0,0,1,4.973.488,31.773,31.773,0,0,1,3.806.9c19.85,6.038,43.182,10.662,55.492,24.327C3042.279,4777.795,3041.288,4751.783,3005.946,4742.494Zm18,21.959-.957-.022a11.651,11.651,0,0,1-2.616-.364,11.3,11.3,0,0,1-1.28-.405,11.812,11.812,0,0,1-4.372-2.935c-.24-.259-.473-.529-.694-.811a57.406,57.406,0,0,0-11.74-10.7,36.774,36.774,0,0,1,17.234,3.2,35.466,35.466,0,0,1,4.624,2.5c.368.229.732.473,1.1.729.882.607,1.764,1.275,2.631,2.007a37.329,37.329,0,0,1,6.455,7.044Z" transform="translate(-7599.129 -3746.062)" fill="#ff4874"/>
    <path id="Path_464" data-name="Path 464" d="M1492.865,4879.532a33.113,33.113,0,0,0-32.97,32.358c-.011.5-.011.995,0,1.486l-57.2,1.393-.323.007-7.146.173-8.287.2-15.868.386-6.451.158-5.712.139a33.131,33.131,0,0,0-30.279-33.443c-.683-.063-1.377-.1-2.075-.116-.221-.008-.439-.008-.661-.008a33.073,33.073,0,0,0-5.374.417,32.365,32.365,0,0,0-5.5,1.374c-1,.341-1.974.731-2.927,1.163a32.916,32.916,0,0,0-6.587,3.978q-.935.721-1.813,1.508a32.872,32.872,0,0,0-3.074,3.138c-.24.282-.477.567-.706.856-.1.116-.192.232-.282.353-.015.022-.03.041-.045.063a32.883,32.883,0,0,0-6.876,18.432c-.023.356-.038.716-.045,1.077q-.034,1.425.053,2.819l-.116,0-2.552.06-11.634.281a1.377,1.377,0,0,1-.135-.112c-.912-.8-6.249-6.714-10.422-37.4q-.31-2.269-.608-4.725a56.716,56.716,0,0,1-.42-6.895c0-.353,0-.7.011-1.055.011-.731.041-1.463.083-2.187.011-.222.023-.443.041-.665.015-.262.037-.526.056-.785.03-.356.06-.709.1-1.062,0-.038.007-.075.011-.109.015-.154.03-.308.049-.462s.034-.3.049-.447c.056-.487.12-.972.188-1.452.049-.323.094-.642.146-.964a9.932,9.932,0,0,1,14.862-6.92,123.158,123.158,0,0,0,28.7,11.859c.657.188,1.325.372,2,.555q5.934,1.6,12.7,2.931,2.387.467,4.879.894c.968.165,1.948.322,2.942.48l.368.056c17.181,2.657,35.2,4.211,52.7,5.149,4.984.271,9.923.488,14.787.668.278.012.552.019.826.03q3.451.124,6.842.226,3.732.112,7.382.194c27.2.657,50.763.417,64.48,1.52,5.9.473,9.979,1.193,11.74,2.346Z" transform="translate(-6116.369 -3861.884)" fill="#e13c72"/>
    <path id="Path_465" data-name="Path 465" d="M3442.835,4980.047a57.428,57.428,0,0,0-11.739-10.7,36.768,36.768,0,0,1,17.234,3.2,35.445,35.445,0,0,1,4.624,2.5c.368.229.732.473,1.1.729.882.607,1.764,1.275,2.631,2.008a37.335,37.335,0,0,1,6.455,7.044l-10.381-.24-.957-.022a11.677,11.677,0,0,1-2.616-.364,11.516,11.516,0,0,1-1.28-.405,11.812,11.812,0,0,1-4.372-2.935C3443.29,4980.6,3443.057,4980.328,3442.835,4980.047Z" transform="translate(-8027.935 -3966.193)" fill="#ef1d52"/>
    <path id="Path_466" data-name="Path 466" d="M1759.085,4537.528s-2.267.169-6.481.413c-1.865.1-4.117.229-6.722.353-9.675.477-24.252,1.036-42.338,1.242-.105,0-.21,0-.315,0l-2.173.022q-2.956.028-6.027.041c-.668,0-1.34.008-2.016.008q-2.572.011-5.217,0h-.071c-5.112,0-10.433-.038-15.932-.113-.439-.008-.882-.011-1.325-.019-5.99-.083-12.19-.218-18.566-.4a98.129,98.129,0,0,1-29.626-5.052,72.113,72.113,0,0,1-6.954-2.837c-1.464-.69-2.856-1.415-4.188-2.166a58.583,58.583,0,0,1-12.535-9.386c-12.929-12.753-14.836-27.067-14.836-27.067,3.637-2.008,8.928-3.354,15.485-4.237,3.509-.473,7.382-.811,11.555-1.043,4.361-.248,9.049-.375,14-.424q3.558-.04,7.285-.022,3.918.016,8,.075c10.084.143,20.837.455,31.8.709a60.875,60.875,0,0,1,16.183,2.8c.668.2,1.34.413,2.008.634.593.195,1.186.4,1.779.612a108.379,108.379,0,0,1,11.484,4.868c.2.1.4.2.6.3q2.2,1.087,4.361,2.256c.049.026.1.053.15.082q3.265,1.768,6.448,3.693c.229.139.462.277.691.417a237.009,237.009,0,0,1,27.765,20.075c3.261,2.71,6.117,5.209,8.471,7.33C1756.413,4534.834,1759.085,4537.528,1759.085,4537.528Z" transform="translate(-6396.295 -3540.094)" fill="#f2f5fa" opacity="0.82"/>
    <path id="Path_467" data-name="Path 467" d="M1715.486,4499.608v-.022l.048.012" transform="translate(-6512.638 -3551.349)" fill="none" stroke="#000" stroke-miterlimit="10" stroke-width="1"/>
    <g id="Group_129" data-name="Group 129" transform="translate(-4803.914 947.208)" opacity="0.5">
      <g id="Group_128" data-name="Group 128">
        <g id="Group_127" data-name="Group 127" transform="translate(0 1.084)">
          <path id="Path_468" data-name="Path 468" d="M1804.982,4603.23l-95.238,2.334c1.953-44.374-52.167-44.426-52.167-44.426l3.493-32.718,3.032-28.376" transform="translate(-1657.576 -4500.044)" fill="none" stroke="#ef1d52" stroke-linecap="round" stroke-linejoin="round" stroke-width="3"/>
        </g>
        <path id="Path_469" data-name="Path 469" d="M2248.522,4596.463c2.631-20.74-3.179-53.255-3.179-53.255l-.045-.113-3.918-9.844-16.907-42.488" transform="translate(-2158.282 -4490.763)" fill="none" stroke="#ef1d52" stroke-linecap="round" stroke-linejoin="round" stroke-width="3"/>
      </g>
    </g>
    <g id="Group_130" data-name="Group 130" transform="translate(-4789.712 997.917)">
      <path id="Path_470" data-name="Path 470" d="M1794.264,4928.623l-.041.387a2.21,2.21,0,0,1-2.413,1.955l-10.64-1.13a2.193,2.193,0,0,1-1.734-1.205,2.123,2.123,0,0,1-.218-1.208l.041-.391a2.19,2.19,0,0,1,2.413-1.951l10.64,1.126A2.191,2.191,0,0,1,1794.264,4928.623Z" transform="translate(-1779.204 -4925.067)" fill="#ef1d52"/>
      <path id="Path_471" data-name="Path 471" d="M1795.8,4946.7a2.189,2.189,0,0,1-2.237,1.3l-10.64-1.129a1.41,1.41,0,1,1,.5-2.5l10.64,1.126A2.193,2.193,0,0,1,1795.8,4946.7Z" transform="translate(-1780.956 -4942.102)" fill="#633c7f" opacity="0.71"/>
    </g>
    <g id="Group_131" data-name="Group 131" transform="translate(-4708.659 1003.941)">
      <path id="Path_472" data-name="Path 472" d="M2488.492,4979.265l-.012.389a2.209,2.209,0,0,1-2.262,2.129l-10.694-.339a2.191,2.191,0,0,1-1.818-1.073,2.123,2.123,0,0,1-.307-1.189l.012-.392a2.191,2.191,0,0,1,2.262-2.125l10.694.335A2.191,2.191,0,0,1,2488.492,4979.265Z" transform="translate(-2473.397 -4976.662)" fill="#ef1d52"/>
      <path id="Path_473" data-name="Path 473" d="M2490.684,4997.307a2.191,2.191,0,0,1-2.135,1.465l-10.694-.34a1.409,1.409,0,1,1,.316-2.533l10.694.335A2.195,2.195,0,0,1,2490.684,4997.307Z" transform="translate(-2475.729 -4993.651)" fill="#633c7f" opacity="0.71"/>
    </g>
    <g id="Group_132" data-name="Group 132" transform="translate(-4584.405 1006.355)" opacity="0.24">
      <path id="Path_474" data-name="Path 474" d="M3547.01,4999.835l-5.052,8.748a11.824,11.824,0,0,1-4.372-2.935l4.8-8.309A35.365,35.365,0,0,1,3547.01,4999.835Z" transform="translate(-3537.586 -4997.339)" fill="url(#linear-gradient-2)"/>
      <path id="Path_475" data-name="Path 475" d="M3593.493,5026.958l-3.926,6.8-.957-.022a11.651,11.651,0,0,1-2.616-.364l4.867-8.426C3591.744,5025.558,3592.626,5026.227,3593.493,5026.958Z" transform="translate(-3580.342 -5021.726)" fill="url(#linear-gradient-2)"/>
    </g>
    <g id="Group_133" data-name="Group 133" transform="translate(-4745.293 943.74)" opacity="0.43">
      <path id="Path_476" data-name="Path 476" d="M2214.67,4466.328l-2.7,7.442-15.609,43.073-2.729,7.529-.683,1.88-16.044,44.274,0,0-17.264.446,17.009-47.412,2.458-6.853,7.093-19.786,10.5-29.27,2.365-6.594A93.355,93.355,0,0,1,2214.67,4466.328Z" transform="translate(-2159.64 -4461.063)" fill="url(#linear-gradient-4)"/>
      <path id="Path_477" data-name="Path 477" d="M2425.666,4530.623l-2.623,7.694-12.359,36.254-2.755,8.087-14.9,43.73-.514,1.5v.012l-7.772.2v0l8.549-25.757,6.605-19.906,2.59-7.8,13.421-40.428,2.559-7.7Q2422.067,4528.359,2425.666,4530.623Z" transform="translate(-2358.457 -4518.865)" fill="url(#linear-gradient-5)"/>
    </g>
    <g id="Group_134" data-name="Group 134" transform="translate(-4815.748 946.754)" opacity="0.43">
      <path id="Path_478" data-name="Path 478" d="M1602.653,4486.938l-18.337,51.165-.9,2.522-.559,1.558-1.437,4.012-1.648,4.594-3.652,10.189a32.407,32.407,0,0,0-5.5,1.374c-1,.341-1.974.732-2.927,1.164a33.216,33.216,0,0,0-11.473,8.625l10.509-29.431,2.935-8.227,16.814-47.1c4.361-.248,9.049-.375,13.995-.424a.45.45,0,0,0,.349,0Z" transform="translate(-1556.217 -4486.93)" fill="url(#linear-gradient-6)"/>
      <path id="Path_479" data-name="Path 479" d="M1803.581,4486.948l-19.835,51.927-.829,2.166-.938,2.458-1.531,4.012-1.9,4.958-3.115,8.159c-.683-.064-1.377-.1-2.075-.117-.221-.007-.439-.007-.66-.007l3.122-8.752,1.681-4.722,1.377-3.858.878-2.466.773-2.169,18.427-51.664c.492,0,.863,0,1.163.008C1801.427,4486.9,1801.374,4486.918,1803.581,4486.948Z" transform="translate(-1747.425 -4486.873)" fill="url(#linear-gradient-7)"/>
    </g>
    <path id="Path_480" data-name="Path 480" d="M3341.269,5130.374a37.786,37.786,0,0,1-1.118,5.761l-30.8.747a33.131,33.131,0,0,0-23.569-30.835C3305.627,5112.086,3328.959,5116.709,3341.269,5130.374Z" transform="translate(-7899.583 -4086.999)" fill="#e13c72"/>
    <path id="Path_481" data-name="Path 481" d="M3113.148,5075.8a33,33,0,0,0-7.146.811c-1.527-1.107-3.115-2.162-4.695-3.224,5.9.473,9.979,1.193,11.739,2.346Z" transform="translate(-7736.651 -4058.156)" fill="none"/>
    <g id="Group_135" data-name="Group 135" transform="translate(-4849.537 1000.456)" opacity="0.61">
      <path id="Path_482" data-name="Path 482" d="M1304.542,4973.956a8.043,8.043,0,0,1-.848,1.223c-1.115,1.37-2.657,2.624-3.779,3.993-.1.117-.192.233-.282.353-.015.023-.03.042-.045.064a34.554,34.554,0,0,0-4.117,7.1,99.235,99.235,0,0,0-2.758,11.327c-.36,2.094-.488,3.693-.109,3.9a.177.177,0,0,0,.09.022c-.882.011-1.764.026-2.642.038l-11.769.169c-.912-.8-6.249-6.714-10.422-37.4q-.31-2.268-.608-4.725a56.716,56.716,0,0,1-.42-6.895c0-.353,0-.7.011-1.055.011-.731.041-1.464.083-2.187.011-.222.023-.443.041-.665.015-.262.037-.525.056-.784.03-.357.06-.709.1-1.062,0-.038.007-.075.011-.108.015-.154.03-.308.049-.462,4.627,3.926,7.138,10.384,11.33,15.045a25.739,25.739,0,0,0,4.474,3.915,36.557,36.557,0,0,0,7.461,3.918,63.839,63.839,0,0,0,7.015,2.267C1299.495,4972.5,1303.007,4972.657,1304.542,4973.956Z" transform="translate(-1266.832 -4946.81)" fill="#ef1d52"/>
      <path id="Path_483" data-name="Path 483" d="M2084.027,5220.991l-57.2,1.393-.323.007-7.146.173-8.287.2-15.868.387-6.451.158-5.712.139a33.012,33.012,0,0,0-9.574-23.734c25.1.458,50.392-.556,75.469-.177,12.775.2,25.862.822,37.65,5.746.278.117.552.236.829.356a32.969,32.969,0,0,0-3.393,13.864C2084.012,5220,2084.012,5220.5,2084.027,5220.991Z" transform="translate(-1890.961 -5169.953)" fill="#ef1d52"/>
    </g>
    <path id="Path_484" data-name="Path 484" d="M3113.993,5223.124" transform="translate(-7747.856 -4190.406)" fill="none" stroke="#707070" stroke-miterlimit="10" stroke-width="1"/>
    <g id="Group_140" data-name="Group 140" transform="translate(-4820.15 1023.551)">
      <g id="Group_139" data-name="Group 139">
        <g id="Group_136" data-name="Group 136">
          <path id="Path_485" data-name="Path 485" d="M1603.42,5208.033a21,21,0,1,1-21.478,20.5,21.02,21.02,0,0,1,21.478-20.5Zm.034-1.448a22.443,22.443,0,1,0,21.915,22.959,22.444,22.444,0,0,0-21.915-22.959Z" transform="translate(-1573.252 -5199.343)" fill="#6d7080"/>
          <path id="Path_486" data-name="Path 486" d="M1548.888,5144.622a29.678,29.678,0,1,0,28.979,30.361A29.712,29.712,0,0,0,1548.888,5144.622Zm-1.2,51.447a21.781,21.781,0,1,1,22.281-21.268A21.8,21.8,0,0,1,1547.689,5196.068Z" transform="translate(-1518.519 -5144.613)" fill="#2b2c33"/>
        </g>
        <path id="Path_487" data-name="Path 487" d="M1613.464,5217.53a21.118,21.118,0,1,0,20.621,21.6A21.118,21.118,0,0,0,1613.464,5217.53Zm2.838,4.766a1.031,1.031,0,0,1,1.283-.908,18.028,18.028,0,0,1,10.8,8.242,1.024,1.024,0,0,1,.1.855,1.048,1.048,0,0,1-.626.626l-11.617,4.443a1.049,1.049,0,0,1-.39.072.762.762,0,0,1-.557-.25.907.907,0,0,1-.2-.7Zm-18.306,6.63a18.03,18.03,0,0,1,11.173-7.732,1.022,1.022,0,0,1,1.242.965l.628,12.427a.883.883,0,0,1-.222.685.757.757,0,0,1-.569.226,1.04,1.04,0,0,1-.384-.089l-11.407-4.979a1.054,1.054,0,0,1-.589-.651A1.016,1.016,0,0,1,1598,5228.927Zm1.879,21.34a1.012,1.012,0,0,1-.769-.387,17.845,17.845,0,0,1-3.987-11.651c.011-.465.039-.911.09-1.36a1.022,1.022,0,0,1,1.294-.885l12.021,3.24a.865.865,0,0,1,.633.565.855.855,0,0,1-.22.809l-8.256,9.305A1.051,1.051,0,0,1,1599.875,5250.267Zm20.111,4.423a1.02,1.02,0,0,1-.6.619,17.815,17.815,0,0,1-13.585-.315,1.024,1.024,0,0,1-.575-.638,1.05,1.05,0,0,1,.135-.872l6.8-10.427a.814.814,0,0,1,1.432.037l6.3,10.729A1.03,1.03,0,0,1,1619.986,5254.689Zm6.312-4.177a1.007,1.007,0,0,1-.782.351,1.039,1.039,0,0,1-.788-.4l-7.812-9.677a.8.8,0,0,1,.474-1.353l12.152-2.678a1.022,1.022,0,0,1,1.262.947c.028.452.037.9.026,1.359A17.84,17.84,0,0,1,1626.3,5250.513Z" transform="translate(-1583.294 -5209.012)" fill="#fff"/>
        <path id="Path_488" data-name="Path 488" d="M1765.081,5361.791a1.09,1.09,0,1,0-1.068-1.111A1.088,1.088,0,0,0,1765.081,5361.791Z" transform="translate(-1735.35 -5334.508)" fill="#cdced0"/>
        <path id="Path_489" data-name="Path 489" d="M1791.338,5379.886a1.09,1.09,0,1,0,1.36.729A1.09,1.09,0,0,0,1791.338,5379.886Z" transform="translate(-1758.795 -5352.374)" fill="#cdced0"/>
        <path id="Path_490" data-name="Path 490" d="M1779.749,5413a1.091,1.091,0,1,0,.276-1.516A1.083,1.083,0,0,0,1779.749,5413Z" transform="translate(-1749.078 -5380.15)" fill="#cdced0"/>
        <path id="Path_491" data-name="Path 491" d="M1738.737,5380.057a1.091,1.091,0,1,0-1.393.666A1.092,1.092,0,0,0,1738.737,5380.057Z" transform="translate(-1711.151 -5351.284)" fill="#cdced0"/>
        <g id="Group_138" data-name="Group 138" transform="translate(11.82 12.158)">
          <g id="Group_137" data-name="Group 137">
            <path id="Path_492" data-name="Path 492" d="M1791.547,5264.6a1.04,1.04,0,0,0,.39-.072l11.617-4.442a1.049,1.049,0,0,0,.626-.627,1.025,1.025,0,0,0-.1-.855,18.03,18.03,0,0,0-10.8-8.242,1.031,1.031,0,0,0-1.283.908l-1.213,12.386a.908.908,0,0,0,.2.7A.759.759,0,0,0,1791.547,5264.6Zm1.052-12.076a15.581,15.581,0,0,1,9.56,7.33l-10.476,4.006a.314.314,0,0,1-.119.025l-.037-.009a.215.215,0,0,1-.023-.153Z" transform="translate(-1770.818 -5250.146)" fill="#e13c72"/>
            <path id="Path_493" data-name="Path 493" d="M1643.607,5258l11.407,4.979a1.023,1.023,0,0,0,.384.09.757.757,0,0,0,.569-.226.884.884,0,0,0,.222-.686l-.628-12.426a1.022,1.022,0,0,0-1.242-.966,18.035,18.035,0,0,0-11.173,7.733,1.016,1.016,0,0,0-.128.851A1.056,1.056,0,0,0,1643.607,5258Zm11.3-7.043.568,11.243a.219.219,0,0,1-.026.148c-.013.014-.065.016-.151-.023l-10.283-4.49A15.584,15.584,0,0,1,1654.91,5250.962Z" transform="translate(-1640.265 -5248.746)" fill="#e13c72"/>
            <path id="Path_494" data-name="Path 494" d="M1633.8,5379.153a.864.864,0,0,0-.633-.565l-12.021-3.24a1.021,1.021,0,0,0-1.294.884c-.051.45-.079.9-.09,1.36a17.845,17.845,0,0,0,3.987,11.651,1.012,1.012,0,0,0,.769.387,1.051,1.051,0,0,0,.806-.364l8.256-9.305A.855.855,0,0,0,1633.8,5379.153Zm-.755.334-7.4,8.339a15.463,15.463,0,0,1-3.564-10.241c.01-.412.04-.819.081-1.223l10.812,2.916c.1.028.134.068.137.077S1633.1,5379.42,1633.042,5379.487Z" transform="translate(-1619.754 -5360.534)" fill="#e13c72"/>
            <path id="Path_495" data-name="Path 495" d="M1818.691,5382.964a1.022,1.022,0,0,0-1.262-.948l-12.152,2.678a.8.8,0,0,0-.474,1.353l7.812,9.676a1.035,1.035,0,0,0,.788.4,1.007,1.007,0,0,0,.782-.351,17.84,17.84,0,0,0,4.533-11.453C1818.728,5383.86,1818.719,5383.415,1818.691,5382.964Zm-6.33,11.307-7-8.673c-.056-.071-.068-.123-.061-.136s.036-.047.136-.07l10.94-2.411c.022.406.033.815.024,1.227A15.466,15.466,0,0,1,1812.361,5394.271Z" transform="translate(-1783 -5366.434)" fill="#e13c72"/>
            <path id="Path_496" data-name="Path 496" d="M1714.379,5433.141a.814.814,0,0,0-1.432-.037l-6.8,10.427a1.052,1.052,0,0,0-.136.872,1.024,1.024,0,0,0,.575.638,17.815,17.815,0,0,0,13.585.315,1.013,1.013,0,0,0,.5-1.487Zm-.974,11.024a15.44,15.44,0,0,1-5.942-1.342l6.083-9.331c.057-.088.1-.105.11-.1s.052.02.1.112l5.638,9.6A15.443,15.443,0,0,1,1713.405,5444.165Z" transform="translate(-1695.904 -5411.217)" fill="#e13c72"/>
          </g>
        </g>
        <path id="Path_497" data-name="Path 497" d="M1746.438,5410.98a1.089,1.089,0,1,0,1.525-.2A1.088,1.088,0,0,0,1746.438,5410.98Z" transform="translate(-1719.626 -5379.504)" fill="#cdced0"/>
      </g>
    </g>
    <g id="Group_145" data-name="Group 145" transform="translate(-4653.055 1021.216)">
      <g id="Group_144" data-name="Group 144">
        <g id="Group_141" data-name="Group 141">
          <path id="Path_498" data-name="Path 498" d="M3034.527,5188.033a21,21,0,1,1-21.478,20.5,21.019,21.019,0,0,1,21.478-20.5Zm.033-1.448a22.443,22.443,0,1,0,21.915,22.959,22.444,22.444,0,0,0-21.915-22.959Z" transform="translate(-3004.359 -5179.343)" fill="#6d7080"/>
          <path id="Path_499" data-name="Path 499" d="M2979.994,5124.622a29.678,29.678,0,1,0,28.979,30.36A29.711,29.711,0,0,0,2979.994,5124.622Zm-1.2,51.446a21.781,21.781,0,1,1,22.281-21.268A21.8,21.8,0,0,1,2978.795,5176.068Z" transform="translate(-2949.625 -5124.614)" fill="#2b2c33"/>
        </g>
        <path id="Path_500" data-name="Path 500" d="M3044.571,5197.53a21.118,21.118,0,1,0,20.621,21.6A21.118,21.118,0,0,0,3044.571,5197.53Zm2.837,4.766a1.031,1.031,0,0,1,1.283-.908,18.029,18.029,0,0,1,10.8,8.242,1.024,1.024,0,0,1,.1.855,1.048,1.048,0,0,1-.626.627l-11.617,4.443a1.038,1.038,0,0,1-.39.072.76.76,0,0,1-.557-.249.91.91,0,0,1-.2-.7Zm-18.306,6.63a18.034,18.034,0,0,1,11.173-7.732,1.022,1.022,0,0,1,1.242.966l.628,12.427a.881.881,0,0,1-.222.685.755.755,0,0,1-.569.226,1.039,1.039,0,0,1-.384-.089l-11.407-4.979a1.057,1.057,0,0,1-.589-.652A1.016,1.016,0,0,1,3029.1,5208.927Zm1.879,21.34a1.013,1.013,0,0,1-.769-.387,17.842,17.842,0,0,1-3.987-11.651c.011-.465.039-.91.09-1.36a1.021,1.021,0,0,1,1.294-.884l12.021,3.24a.865.865,0,0,1,.633.565.854.854,0,0,1-.221.809l-8.256,9.306A1.054,1.054,0,0,1,3030.981,5230.267Zm20.112,4.422a1.019,1.019,0,0,1-.6.619,17.815,17.815,0,0,1-13.586-.315,1.025,1.025,0,0,1-.575-.638,1.052,1.052,0,0,1,.136-.872l6.8-10.427a.814.814,0,0,1,1.432.037l6.3,10.728A1.03,1.03,0,0,1,3051.093,5234.689Zm6.312-4.177a1.007,1.007,0,0,1-.782.352,1.042,1.042,0,0,1-.788-.4l-7.812-9.677a.859.859,0,0,1-.183-.818.869.869,0,0,1,.657-.534l12.152-2.678a1.022,1.022,0,0,1,1.262.948c.028.451.037.9.026,1.358A17.839,17.839,0,0,1,3057.4,5230.513Z" transform="translate(-3014.4 -5189.012)" fill="#fff"/>
        <path id="Path_501" data-name="Path 501" d="M3196.188,5341.791a1.09,1.09,0,1,0-1.067-1.111A1.088,1.088,0,0,0,3196.188,5341.791Z" transform="translate(-3166.457 -5314.508)" fill="#cdced0"/>
        <path id="Path_502" data-name="Path 502" d="M3222.445,5359.886a1.09,1.09,0,1,0,1.36.729A1.09,1.09,0,0,0,3222.445,5359.886Z" transform="translate(-3189.902 -5332.374)" fill="#cdced0"/>
        <path id="Path_503" data-name="Path 503" d="M3210.855,5393a1.091,1.091,0,1,0,.276-1.516A1.084,1.084,0,0,0,3210.855,5393Z" transform="translate(-3180.184 -5360.149)" fill="#cdced0"/>
        <path id="Path_504" data-name="Path 504" d="M3169.843,5360.057a1.091,1.091,0,1,0-1.393.666A1.092,1.092,0,0,0,3169.843,5360.057Z" transform="translate(-3142.257 -5331.284)" fill="#cdced0"/>
        <g id="Group_143" data-name="Group 143" transform="translate(11.82 12.158)">
          <g id="Group_142" data-name="Group 142">
            <path id="Path_505" data-name="Path 505" d="M3222.653,5244.6a1.049,1.049,0,0,0,.39-.071l11.617-4.443a1.049,1.049,0,0,0,.626-.627,1.024,1.024,0,0,0-.1-.855,18.028,18.028,0,0,0-10.8-8.243,1.031,1.031,0,0,0-1.284.908l-1.212,12.386a.907.907,0,0,0,.2.7A.758.758,0,0,0,3222.653,5244.6Zm1.052-12.075a15.581,15.581,0,0,1,9.561,7.329l-10.476,4.006a.305.305,0,0,1-.119.025l-.036-.009a.212.212,0,0,1-.023-.153Z" transform="translate(-3201.924 -5230.145)" fill="#e13c72"/>
            <path id="Path_506" data-name="Path 506" d="M3074.713,5238l11.407,4.979a1.024,1.024,0,0,0,.384.09.755.755,0,0,0,.569-.226.883.883,0,0,0,.222-.685l-.628-12.427a1.023,1.023,0,0,0-1.242-.966,18.035,18.035,0,0,0-11.173,7.733,1.015,1.015,0,0,0-.128.851A1.056,1.056,0,0,0,3074.713,5238Zm11.3-7.043.568,11.243a.221.221,0,0,1-.026.148c-.013.014-.065.015-.152-.023l-10.283-4.49A15.584,15.584,0,0,1,3086.016,5230.962Z" transform="translate(-3071.371 -5228.746)" fill="#e13c72"/>
            <path id="Path_507" data-name="Path 507" d="M3064.9,5359.153a.862.862,0,0,0-.633-.564l-12.021-3.241a1.022,1.022,0,0,0-1.294.884c-.051.45-.079.9-.089,1.361a17.841,17.841,0,0,0,3.987,11.651,1.012,1.012,0,0,0,.769.387,1.052,1.052,0,0,0,.806-.364l8.256-9.306A.855.855,0,0,0,3064.9,5359.153Zm-.754.334-7.4,8.339a15.463,15.463,0,0,1-3.564-10.241c.01-.412.04-.819.082-1.223l10.812,2.917c.1.028.134.067.137.076S3064.209,5359.42,3064.149,5359.487Z" transform="translate(-3050.861 -5340.534)" fill="#e13c72"/>
            <path id="Path_508" data-name="Path 508" d="M3249.8,5362.965a1.022,1.022,0,0,0-1.262-.948l-12.152,2.678a.869.869,0,0,0-.657.534.859.859,0,0,0,.183.818l7.812,9.677a1.039,1.039,0,0,0,.788.4,1.007,1.007,0,0,0,.782-.351,17.838,17.838,0,0,0,4.533-11.453C3249.834,5363.861,3249.825,5363.416,3249.8,5362.965Zm-6.33,11.307-7-8.672c-.056-.072-.068-.124-.061-.136s.036-.047.136-.07l10.941-2.41c.022.405.033.814.024,1.226A15.466,15.466,0,0,1,3243.467,5374.271Z" transform="translate(-3214.106 -5346.434)" fill="#e13c72"/>
            <path id="Path_509" data-name="Path 509" d="M3145.485,5413.141a.814.814,0,0,0-1.432-.037l-6.8,10.427a1.051,1.051,0,0,0-.136.872,1.024,1.024,0,0,0,.575.638,17.815,17.815,0,0,0,13.585.315,1.018,1.018,0,0,0,.6-.619,1.031,1.031,0,0,0-.1-.868Zm-.974,11.024a15.44,15.44,0,0,1-5.942-1.341l6.083-9.332c.057-.087.1-.1.11-.1s.052.02.1.112l5.638,9.6A15.442,15.442,0,0,1,3144.511,5424.165Z" transform="translate(-3127.01 -5391.217)" fill="#e13c72"/>
          </g>
        </g>
        <path id="Path_510" data-name="Path 510" d="M3177.545,5390.98a1.089,1.089,0,1,0,1.524-.2A1.088,1.088,0,0,0,3177.545,5390.98Z" transform="translate(-3150.733 -5359.504)" fill="#cdced0"/>
      </g>
    </g>
    <rect id="Rectangle_66" data-name="Rectangle 66" width="55.461" height="9.717" transform="translate(-4839.638 1075.993) rotate(-180)" opacity="0.1"/>
    <rect id="Rectangle_67" data-name="Rectangle 67" width="217.833" height="9.548" transform="translate(-4595.97 1085.703) rotate(-180)" opacity="0.1"/>
    <path id="Path_631" data-name="Path 631" d="M3013.588,4519.515c.8.519,1.612,1.06,2.373,1.657.268.206.527.421.775.646a8.034,8.034,0,0,1,2.428,3.447,6.849,6.849,0,0,1,.308,1.517,8.544,8.544,0,0,1-.057,1.95" transform="translate(-7659.174 -3568.95)" fill="none"/>
    <path id="Path_632" data-name="Path 632" d="M3029.705,4511.371a3.094,3.094,0,0,1,1.276-1.306,4.188,4.188,0,0,1,1.249-.467,8.377,8.377,0,0,1,3.175.112c.172.032.342.063.514.1" transform="translate(-7673.409 -3560.094)" fill="none"/>
    <path id="Path_693" data-name="Path 693" d="M3191,5020.033" transform="translate(-7815.873 -4011.028)" fill="#030384"/>
    <path id="Path_694" data-name="Path 694" d="M2973.218,5047.476" transform="translate(-7623.518 -4035.267)" opacity="0.89"/>
    <path id="Path_698" data-name="Path 698" d="M3032.454,4526.474a3.864,3.864,0,0,1-.935-.132c-.055-.012-.11-.028-.166-.044-.14-.044-.28-.1-.416-.153a3.98,3.98,0,0,1-1.147-.747,1.853,1.853,0,0,1-.686-1.315,1.207,1.207,0,0,1,.079-.408,1.626,1.626,0,0,1,.754-.844,2.827,2.827,0,0,1,1.533-.257,8.65,8.65,0,0,1,2.78.806q1.159.5,2.272,1.1a12.472,12.472,0,0,1,1.217.731" transform="translate(-7672.879 -3571.642)" fill="none"/>
    <path id="Path_706" data-name="Path 706" d="M1532.942,4417.916c-.109-.061-.218-.128-.325-.2a5.983,5.983,0,0,1-1.593-1.693,11.757,11.757,0,0,1-1.429-3.33.04.04,0,0,0-.074,0,11.768,11.768,0,0,1-1.429,3.33,5.981,5.981,0,0,1-1.593,1.693c-.107.073-.216.141-.325.2a.038.038,0,0,0,0,.067c.108.06.217.127.325.2a5.989,5.989,0,0,1,1.593,1.693,11.764,11.764,0,0,1,1.429,3.33.039.039,0,0,0,.074,0c.038-.139.078-.275.119-.412a.037.037,0,0,0,.01-.029v0a11.378,11.378,0,0,1,1.3-2.885,6.079,6.079,0,0,1,1.509-1.632h0a.039.039,0,0,0,.032-.018s0-.005,0-.008l.049-.036c.108-.073.217-.141.325-.2a.038.038,0,0,0,0-.067Z" transform="translate(-6346.412 -3486.578)" fill="#f2f5fa"/>
    <path id="Path_707" data-name="Path 707" d="M1475.148,4451.467c-.078-.043-.156-.091-.233-.144a4.3,4.3,0,0,1-1.141-1.212,8.422,8.422,0,0,1-1.023-2.384.029.029,0,0,0-.053,0,8.429,8.429,0,0,1-1.023,2.384,4.3,4.3,0,0,1-1.141,1.212c-.076.052-.155.1-.232.144a.028.028,0,0,0-.014.024.028.028,0,0,0,.014.024c.077.043.156.092.232.144a4.3,4.3,0,0,1,1.141,1.212,8.426,8.426,0,0,1,1.023,2.385.028.028,0,0,0,.053,0c.027-.1.056-.2.085-.295a.028.028,0,0,0,.007-.021v0a8.143,8.143,0,0,1,.931-2.066,4.349,4.349,0,0,1,1.081-1.168h0a.027.027,0,0,0,.023-.012s0,0,0-.006l.035-.026c.077-.052.155-.1.233-.144a.028.028,0,0,0,.014-.024A.028.028,0,0,0,1475.148,4451.467Z" transform="translate(-6296.068 -3505.528)" fill="#f2f5fa" opacity="0.82"/>
    <path id="Path_708" data-name="Path 708" d="M2385.953,4474.426c-.118-.066-.236-.139-.352-.218a6.5,6.5,0,0,1-1.727-1.836,12.763,12.763,0,0,1-1.55-3.611.044.044,0,0,0-.081,0,12.764,12.764,0,0,1-1.55,3.611,6.5,6.5,0,0,1-1.727,1.836c-.116.079-.234.152-.352.218a.042.042,0,0,0-.022.037.043.043,0,0,0,.022.037c.117.065.235.138.352.218a6.489,6.489,0,0,1,1.727,1.836,12.757,12.757,0,0,1,1.55,3.611.042.042,0,0,0,.081,0c.041-.151.084-.3.129-.447a.04.04,0,0,0,.011-.032v0a12.331,12.331,0,0,1,1.411-3.129,6.571,6.571,0,0,1,1.637-1.77h0a.042.042,0,0,0,.035-.019s0-.006,0-.009l.053-.039c.116-.08.235-.153.352-.218a.043.043,0,0,0,.021-.037A.042.042,0,0,0,2385.953,4474.426Z" transform="translate(-7055.32 -3463.098)" fill="#f2f5fa" opacity="0.35"/>
    <path id="Path_709" data-name="Path 709" d="M2323.276,4510.812c-.084-.047-.169-.1-.252-.156a4.653,4.653,0,0,1-1.237-1.315,9.124,9.124,0,0,1-1.11-2.586.031.031,0,0,0-.058,0,9.132,9.132,0,0,1-1.109,2.586,4.657,4.657,0,0,1-1.237,1.315c-.083.056-.168.109-.252.156a.03.03,0,0,0,0,.053c.084.047.169.1.252.156a4.65,4.65,0,0,1,1.237,1.315,9.132,9.132,0,0,1,1.109,2.586.031.031,0,0,0,.029.022.03.03,0,0,0,.029-.022c.029-.108.061-.215.092-.319a.032.032,0,0,0,.008-.023v0a8.819,8.819,0,0,1,1.01-2.241,4.718,4.718,0,0,1,1.172-1.268h0a.029.029,0,0,0,.025-.013s0,0,0-.007l.038-.028c.083-.057.168-.109.252-.156a.031.031,0,0,0,0-.053Z" transform="translate(-7001.807 -3496.663)" fill="#f2f5fa" opacity="0.35"/>
    <path id="Path_710" data-name="Path 710" d="M2419.059,4590.241c-.085-.047-.169-.1-.252-.156a4.657,4.657,0,0,1-1.237-1.314,9.136,9.136,0,0,1-1.11-2.586.031.031,0,0,0-.058,0,9.143,9.143,0,0,1-1.11,2.586,4.654,4.654,0,0,1-1.237,1.314c-.083.057-.167.109-.252.156a.03.03,0,0,0,0,.053c.084.046.169.1.252.156a4.654,4.654,0,0,1,1.237,1.314,9.143,9.143,0,0,1,1.11,2.586.03.03,0,0,0,.058,0c.029-.107.06-.214.092-.319a.03.03,0,0,0,.008-.023v0a8.814,8.814,0,0,1,1.01-2.241,4.723,4.723,0,0,1,1.172-1.267h0a.031.031,0,0,0,.025-.014s0,0,0-.006l.038-.028c.083-.057.168-.109.252-.156a.031.031,0,0,0,0-.053Z" transform="translate(-7086.406 -3566.818)" fill="#f2f5fa" opacity="0.35"/>
  </g>
</svg>
