<svg xmlns="http://www.w3.org/2000/svg" width="69.203" height="36.579" viewBox="0 0 69.203 36.579">
  <g id="Group_438" data-name="Group 438" transform="translate(-71 -100.476)">
    <path id="Path_4" data-name="Path 4" d="M151.421,92.7a1.125,1.125,0,0,1,1.233-1.219,36.485,36.485,0,0,1,14.2,2.706,1.154,1.154,0,0,1,.76,1.63c-.481.841-1.089,1.6-1.622,2.406-.879,1.184-1.546,2.59-2.8,3.439a5.959,5.959,0,0,1-3.517,1.035c-2.33,0-4.658.016-6.988-.011C152.3,99.355,151.8,96.035,151.421,92.7Z" transform="translate(-39.481 9)" fill="rgba(239,29,82,0.77)"/>
    <path id="Path_5" data-name="Path 5" d="M69.734,101.7a35.565,35.565,0,0,1,18.071-8.653,1.127,1.127,0,0,1,1.322,1.043q.657,4.866,1.265,9.74-9.817,0-19.636,0a1.438,1.438,0,0,1-1.352-.53A1.178,1.178,0,0,1,69.734,101.7Z" transform="translate(20.494 7.874)" fill="rgba(239,29,82,0.77)"/>
    <path id="Path_6" data-name="Path 6" d="M58.5,110.656c.562-.738,1.133-2.184,2.309-1.654a35.664,35.664,0,0,1,5.142,3.217,8.176,8.176,0,0,1,3.211,6.7c-.019,4.841.041,9.683-.032,14.524.019-.035.059-.1.078-.138v.1c-.422.295-.795.762-1.362.695a21.514,21.514,0,0,1-3.206-.057c-.862-.187-.8-1.2-.849-1.881a10.35,10.35,0,0,0-13.243-9.429,10.4,10.4,0,0,0-7.445,9.707c.057.751-.257,1.733-1.184,1.668-4.6.059-9.2-.008-13.795.032-.657-.03-1.573.1-1.906-.63a7.353,7.353,0,0,1-.192-1.595,10.344,10.344,0,0,0-20.612-.27c-.119.716.054,1.781-.816,2.076a19.65,19.65,0,0,1-3.522.054c-.527.043-.816-.43-1.07-.806v-8.583a5.824,5.824,0,0,1,3.982-5.258,35.97,35.97,0,0,1,10.889-1.419q17.16,0,34.323,0a8.391,8.391,0,0,0,5.344-1.822C56.2,114.435,57.184,112.4,58.5,110.656Z" transform="translate(71 -3.705)" fill="rgba(239,29,82,0.77)"/>
    <path id="Path_7" data-name="Path 7" d="M34.809,167.188a8.078,8.078,0,1,1-3.511,1.633A8.109,8.109,0,0,1,34.809,167.188Z" transform="translate(50.367 -46.125)" fill="rgba(239,29,82,0.77)"/>
    <path id="Path_8" data-name="Path 8" d="M174.319,167.225a8.067,8.067,0,1,1-3.717,1.895A8.109,8.109,0,0,1,174.319,167.225Z" transform="translate(-51.538 -46.133)" fill="rgba(239,29,82,0.77)"/>
  </g>
</svg>
