<svg id="Group_437" data-name="Group 437" xmlns="http://www.w3.org/2000/svg" xmlns:xlink="http://www.w3.org/1999/xlink" width="16.416" height="16.417" viewBox="0 0 16.416 16.417">
  <defs>
    <clipPath id="clip-path">
      <path id="Mask" d="M15.323,16.417a1.088,1.088,0,0,1-.775-.321l-2.3-2.3A7.66,7.66,0,1,1,13.8,12.249l2.3,2.3a1.095,1.095,0,0,1-.774,1.869ZM7.661,2.189a5.472,5.472,0,1,0,5.472,5.472A5.478,5.478,0,0,0,7.661,2.189Z" fill="#ef1d52"/>
    </clipPath>
  </defs>
  <path id="Mask-2" data-name="Mask" d="M15.323,16.417a1.088,1.088,0,0,1-.775-.321l-2.3-2.3A7.66,7.66,0,1,1,13.8,12.249l2.3,2.3a1.095,1.095,0,0,1-.774,1.869ZM7.661,2.189a5.472,5.472,0,1,0,5.472,5.472A5.478,5.478,0,0,0,7.661,2.189Z" fill="#ef1d52"/>
</svg>
