<svg id="_22_Icons_Line_Right_arrow_Copy_4" data-name="22) Icons/Line/Right arrow Copy 4" xmlns="http://www.w3.org/2000/svg" xmlns:xlink="http://www.w3.org/1999/xlink" width="20" height="20" viewBox="0 0 20 20">
  <defs>
    <clipPath id="clip-path">
      <path id="Mask" d="M6.667,13.333a6.667,6.667,0,1,1,6.667-6.667A6.674,6.674,0,0,1,6.667,13.333Zm0-12A5.333,5.333,0,1,0,12,6.667,5.339,5.339,0,0,0,6.667,1.334Zm3.333,6H6.667A.668.668,0,0,1,6,6.667V3.333a.667.667,0,0,1,1.334,0V6H10a.667.667,0,0,1,0,1.334Z" transform="translate(0 0)" fill="#222b45"/>
    </clipPath>
  </defs>
  <g id="Group_53" data-name="Group 53" transform="translate(3.333 3.333)">
    <path id="Mask-2" data-name="Mask" d="M6.667,13.333a6.667,6.667,0,1,1,6.667-6.667A6.674,6.674,0,0,1,6.667,13.333Zm0-12A5.333,5.333,0,1,0,12,6.667,5.339,5.339,0,0,0,6.667,1.334Zm3.333,6H6.667A.668.668,0,0,1,6,6.667V3.333a.667.667,0,0,1,1.334,0V6H10a.667.667,0,0,1,0,1.334Z" transform="translate(0 0)" fill="#222b45"/>
  </g>
</svg>
